<svg id="main" xmlns="http://www.w3.org/2000/svg" viewBox="0 0 720 720"><defs><style>.cls-1{fill:none;stroke:#fff;stroke-linecap:round;stroke-linejoin:round;stroke-width:20px;}</style></defs><title>favicon-Artboard 1</title><path class="cls-1" d="M427.53,500c35-60.09,70.47-130.57,70.47-169.22a138,138,0,0,0-276,0c0,38.65,35.49,109.13,70.47,169.22H94.6A298.72,298.72,0,0,1,60,360C60,194.31,194.31,60,360,60S660,194.31,660,360a298.86,298.86,0,0,1-67.83,190H397.24L386,562.5H334L322.76,550H127.83c11.9,14.54,39.55,40,39.55,40H348.56L360,604.5,371.44,590H552.62s-39.46,29.2-61.7,40H229.08a301.15,301.15,0,0,0,215.4,17.94"/><circle class="cls-1" cx="360" cy="322" r="40"/></svg>